<svg version="1.1" xmlns="http://www.w3.org/2000/svg" width="220px" height="220px" viewBox="0 0 220 220" preserveAspectRatio="xMinYMin meet" xmlns:xlink="http://www.w3.org/1999/xlink" xmlns:svgjs="http://svgjs.com/svgjs"><rect width="100%" height="100%" fill="#ffffff" cx="0" cy="0"/><path d="M11,11l6,0 0,6 -6,0 0,-6z M17,11l6,0 0,6 -6,0 0,-6z M23,11l6,0 0,6 -6,0 0,-6z M29,11l6,0 0,6 -6,0 0,-6z M35,11l6,0 0,6 -6,0 0,-6z M41,11l6,0 0,6 -6,0 0,-6z M47,11l6,0 0,6 -6,0 0,-6z M77,11l6,0 0,6 -6,0 0,-6z M89,11l6,0 0,6 -6,0 0,-6z M119,11l6,0 0,6 -6,0 0,-6z M125,11l6,0 0,6 -6,0 0,-6z M131,11l6,0 0,6 -6,0 0,-6z M149,11l6,0 0,6 -6,0 0,-6z M167,11l6,0 0,6 -6,0 0,-6z M173,11l6,0 0,6 -6,0 0,-6z M179,11l6,0 0,6 -6,0 0,-6z M185,11l6,0 0,6 -6,0 0,-6z M191,11l6,0 0,6 -6,0 0,-6z M197,11l6,0 0,6 -6,0 0,-6z M203,11l6,0 0,6 -6,0 0,-6z M11,17l6,0 0,6 -6,0 0,-6z M47,17l6,0 0,6 -6,0 0,-6z M59,17l6,0 0,6 -6,0 0,-6z M77,17l6,0 0,6 -6,0 0,-6z M95,17l6,0 0,6 -6,0 0,-6z M107,17l6,0 0,6 -6,0 0,-6z M113,17l6,0 0,6 -6,0 0,-6z M137,17l6,0 0,6 -6,0 0,-6z M149,17l6,0 0,6 -6,0 0,-6z M155,17l6,0 0,6 -6,0 0,-6z M167,17l6,0 0,6 -6,0 0,-6z M203,17l6,0 0,6 -6,0 0,-6z M11,23l6,0 0,6 -6,0 0,-6z M23,23l6,0 0,6 -6,0 0,-6z M29,23l6,0 0,6 -6,0 0,-6z M35,23l6,0 0,6 -6,0 0,-6z M47,23l6,0 0,6 -6,0 0,-6z M59,23l6,0 0,6 -6,0 0,-6z M89,23l6,0 0,6 -6,0 0,-6z M119,23l6,0 0,6 -6,0 0,-6z M143,23l6,0 0,6 -6,0 0,-6z M167,23l6,0 0,6 -6,0 0,-6z M179,23l6,0 0,6 -6,0 0,-6z M185,23l6,0 0,6 -6,0 0,-6z M191,23l6,0 0,6 -6,0 0,-6z M203,23l6,0 0,6 -6,0 0,-6z M11,29l6,0 0,6 -6,0 0,-6z M23,29l6,0 0,6 -6,0 0,-6z M29,29l6,0 0,6 -6,0 0,-6z M35,29l6,0 0,6 -6,0 0,-6z M47,29l6,0 0,6 -6,0 0,-6z M65,29l6,0 0,6 -6,0 0,-6z M71,29l6,0 0,6 -6,0 0,-6z M83,29l6,0 0,6 -6,0 0,-6z M89,29l6,0 0,6 -6,0 0,-6z M101,29l6,0 0,6 -6,0 0,-6z M107,29l6,0 0,6 -6,0 0,-6z M119,29l6,0 0,6 -6,0 0,-6z M137,29l6,0 0,6 -6,0 0,-6z M143,29l6,0 0,6 -6,0 0,-6z M149,29l6,0 0,6 -6,0 0,-6z M167,29l6,0 0,6 -6,0 0,-6z M179,29l6,0 0,6 -6,0 0,-6z M185,29l6,0 0,6 -6,0 0,-6z M191,29l6,0 0,6 -6,0 0,-6z M203,29l6,0 0,6 -6,0 0,-6z M11,35l6,0 0,6 -6,0 0,-6z M23,35l6,0 0,6 -6,0 0,-6z M29,35l6,0 0,6 -6,0 0,-6z M35,35l6,0 0,6 -6,0 0,-6z M47,35l6,0 0,6 -6,0 0,-6z M65,35l6,0 0,6 -6,0 0,-6z M83,35l6,0 0,6 -6,0 0,-6z M89,35l6,0 0,6 -6,0 0,-6z M95,35l6,0 0,6 -6,0 0,-6z M119,35l6,0 0,6 -6,0 0,-6z M137,35l6,0 0,6 -6,0 0,-6z M149,35l6,0 0,6 -6,0 0,-6z M155,35l6,0 0,6 -6,0 0,-6z M167,35l6,0 0,6 -6,0 0,-6z M179,35l6,0 0,6 -6,0 0,-6z M185,35l6,0 0,6 -6,0 0,-6z M191,35l6,0 0,6 -6,0 0,-6z M203,35l6,0 0,6 -6,0 0,-6z M11,41l6,0 0,6 -6,0 0,-6z M47,41l6,0 0,6 -6,0 0,-6z M65,41l6,0 0,6 -6,0 0,-6z M71,41l6,0 0,6 -6,0 0,-6z M77,41l6,0 0,6 -6,0 0,-6z M89,41l6,0 0,6 -6,0 0,-6z M101,41l6,0 0,6 -6,0 0,-6z M107,41l6,0 0,6 -6,0 0,-6z M113,41l6,0 0,6 -6,0 0,-6z M119,41l6,0 0,6 -6,0 0,-6z M137,41l6,0 0,6 -6,0 0,-6z M155,41l6,0 0,6 -6,0 0,-6z M167,41l6,0 0,6 -6,0 0,-6z M203,41l6,0 0,6 -6,0 0,-6z M11,47l6,0 0,6 -6,0 0,-6z M17,47l6,0 0,6 -6,0 0,-6z M23,47l6,0 0,6 -6,0 0,-6z M29,47l6,0 0,6 -6,0 0,-6z M35,47l6,0 0,6 -6,0 0,-6z M41,47l6,0 0,6 -6,0 0,-6z M47,47l6,0 0,6 -6,0 0,-6z M59,47l6,0 0,6 -6,0 0,-6z M71,47l6,0 0,6 -6,0 0,-6z M83,47l6,0 0,6 -6,0 0,-6z M95,47l6,0 0,6 -6,0 0,-6z M107,47l6,0 0,6 -6,0 0,-6z M119,47l6,0 0,6 -6,0 0,-6z M131,47l6,0 0,6 -6,0 0,-6z M143,47l6,0 0,6 -6,0 0,-6z M155,47l6,0 0,6 -6,0 0,-6z M167,47l6,0 0,6 -6,0 0,-6z M173,47l6,0 0,6 -6,0 0,-6z M179,47l6,0 0,6 -6,0 0,-6z M185,47l6,0 0,6 -6,0 0,-6z M191,47l6,0 0,6 -6,0 0,-6z M197,47l6,0 0,6 -6,0 0,-6z M203,47l6,0 0,6 -6,0 0,-6z M65,53l6,0 0,6 -6,0 0,-6z M71,53l6,0 0,6 -6,0 0,-6z M89,53l6,0 0,6 -6,0 0,-6z M95,53l6,0 0,6 -6,0 0,-6z M101,53l6,0 0,6 -6,0 0,-6z M113,53l6,0 0,6 -6,0 0,-6z M119,53l6,0 0,6 -6,0 0,-6z M125,53l6,0 0,6 -6,0 0,-6z M143,53l6,0 0,6 -6,0 0,-6z M155,53l6,0 0,6 -6,0 0,-6z M17,59l6,0 0,6 -6,0 0,-6z M23,59l6,0 0,6 -6,0 0,-6z M29,59l6,0 0,6 -6,0 0,-6z M41,59l6,0 0,6 -6,0 0,-6z M47,59l6,0 0,6 -6,0 0,-6z M83,59l6,0 0,6 -6,0 0,-6z M95,59l6,0 0,6 -6,0 0,-6z M107,59l6,0 0,6 -6,0 0,-6z M113,59l6,0 0,6 -6,0 0,-6z M119,59l6,0 0,6 -6,0 0,-6z M137,59l6,0 0,6 -6,0 0,-6z M155,59l6,0 0,6 -6,0 0,-6z M191,59l6,0 0,6 -6,0 0,-6z M197,59l6,0 0,6 -6,0 0,-6z M11,65l6,0 0,6 -6,0 0,-6z M17,65l6,0 0,6 -6,0 0,-6z M59,65l6,0 0,6 -6,0 0,-6z M95,65l6,0 0,6 -6,0 0,-6z M113,65l6,0 0,6 -6,0 0,-6z M119,65l6,0 0,6 -6,0 0,-6z M125,65l6,0 0,6 -6,0 0,-6z M131,65l6,0 0,6 -6,0 0,-6z M137,65l6,0 0,6 -6,0 0,-6z M143,65l6,0 0,6 -6,0 0,-6z M149,65l6,0 0,6 -6,0 0,-6z M167,65l6,0 0,6 -6,0 0,-6z M173,65l6,0 0,6 -6,0 0,-6z M185,65l6,0 0,6 -6,0 0,-6z M191,65l6,0 0,6 -6,0 0,-6z M203,65l6,0 0,6 -6,0 0,-6z M17,71l6,0 0,6 -6,0 0,-6z M35,71l6,0 0,6 -6,0 0,-6z M47,71l6,0 0,6 -6,0 0,-6z M53,71l6,0 0,6 -6,0 0,-6z M59,71l6,0 0,6 -6,0 0,-6z M65,71l6,0 0,6 -6,0 0,-6z M77,71l6,0 0,6 -6,0 0,-6z M89,71l6,0 0,6 -6,0 0,-6z M101,71l6,0 0,6 -6,0 0,-6z M119,71l6,0 0,6 -6,0 0,-6z M131,71l6,0 0,6 -6,0 0,-6z M143,71l6,0 0,6 -6,0 0,-6z M149,71l6,0 0,6 -6,0 0,-6z M161,71l6,0 0,6 -6,0 0,-6z M167,71l6,0 0,6 -6,0 0,-6z M173,71l6,0 0,6 -6,0 0,-6z M179,71l6,0 0,6 -6,0 0,-6z M185,71l6,0 0,6 -6,0 0,-6z M197,71l6,0 0,6 -6,0 0,-6z M203,71l6,0 0,6 -6,0 0,-6z M17,77l6,0 0,6 -6,0 0,-6z M29,77l6,0 0,6 -6,0 0,-6z M35,77l6,0 0,6 -6,0 0,-6z M41,77l6,0 0,6 -6,0 0,-6z M59,77l6,0 0,6 -6,0 0,-6z M77,77l6,0 0,6 -6,0 0,-6z M89,77l6,0 0,6 -6,0 0,-6z M101,77l6,0 0,6 -6,0 0,-6z M107,77l6,0 0,6 -6,0 0,-6z M113,77l6,0 0,6 -6,0 0,-6z M131,77l6,0 0,6 -6,0 0,-6z M143,77l6,0 0,6 -6,0 0,-6z M149,77l6,0 0,6 -6,0 0,-6z M155,77l6,0 0,6 -6,0 0,-6z M161,77l6,0 0,6 -6,0 0,-6z M167,77l6,0 0,6 -6,0 0,-6z M173,77l6,0 0,6 -6,0 0,-6z M185,77l6,0 0,6 -6,0 0,-6z M203,77l6,0 0,6 -6,0 0,-6z M23,83l6,0 0,6 -6,0 0,-6z M35,83l6,0 0,6 -6,0 0,-6z M47,83l6,0 0,6 -6,0 0,-6z M77,83l6,0 0,6 -6,0 0,-6z M89,83l6,0 0,6 -6,0 0,-6z M95,83l6,0 0,6 -6,0 0,-6z M125,83l6,0 0,6 -6,0 0,-6z M137,83l6,0 0,6 -6,0 0,-6z M143,83l6,0 0,6 -6,0 0,-6z M149,83l6,0 0,6 -6,0 0,-6z M179,83l6,0 0,6 -6,0 0,-6z M185,83l6,0 0,6 -6,0 0,-6z M197,83l6,0 0,6 -6,0 0,-6z M17,89l6,0 0,6 -6,0 0,-6z M23,89l6,0 0,6 -6,0 0,-6z M35,89l6,0 0,6 -6,0 0,-6z M59,89l6,0 0,6 -6,0 0,-6z M71,89l6,0 0,6 -6,0 0,-6z M107,89l6,0 0,6 -6,0 0,-6z M113,89l6,0 0,6 -6,0 0,-6z M131,89l6,0 0,6 -6,0 0,-6z M143,89l6,0 0,6 -6,0 0,-6z M155,89l6,0 0,6 -6,0 0,-6z M161,89l6,0 0,6 -6,0 0,-6z M173,89l6,0 0,6 -6,0 0,-6z M185,89l6,0 0,6 -6,0 0,-6z M197,89l6,0 0,6 -6,0 0,-6z M17,95l6,0 0,6 -6,0 0,-6z M29,95l6,0 0,6 -6,0 0,-6z M41,95l6,0 0,6 -6,0 0,-6z M47,95l6,0 0,6 -6,0 0,-6z M59,95l6,0 0,6 -6,0 0,-6z M119,95l6,0 0,6 -6,0 0,-6z M125,95l6,0 0,6 -6,0 0,-6z M155,95l6,0 0,6 -6,0 0,-6z M167,95l6,0 0,6 -6,0 0,-6z M173,95l6,0 0,6 -6,0 0,-6z M185,95l6,0 0,6 -6,0 0,-6z M29,101l6,0 0,6 -6,0 0,-6z M35,101l6,0 0,6 -6,0 0,-6z M53,101l6,0 0,6 -6,0 0,-6z M77,101l6,0 0,6 -6,0 0,-6z M83,101l6,0 0,6 -6,0 0,-6z M107,101l6,0 0,6 -6,0 0,-6z M119,101l6,0 0,6 -6,0 0,-6z M137,101l6,0 0,6 -6,0 0,-6z M143,101l6,0 0,6 -6,0 0,-6z M149,101l6,0 0,6 -6,0 0,-6z M155,101l6,0 0,6 -6,0 0,-6z M161,101l6,0 0,6 -6,0 0,-6z M167,101l6,0 0,6 -6,0 0,-6z M179,101l6,0 0,6 -6,0 0,-6z M185,101l6,0 0,6 -6,0 0,-6z M191,101l6,0 0,6 -6,0 0,-6z M17,107l6,0 0,6 -6,0 0,-6z M23,107l6,0 0,6 -6,0 0,-6z M47,107l6,0 0,6 -6,0 0,-6z M65,107l6,0 0,6 -6,0 0,-6z M77,107l6,0 0,6 -6,0 0,-6z M89,107l6,0 0,6 -6,0 0,-6z M95,107l6,0 0,6 -6,0 0,-6z M101,107l6,0 0,6 -6,0 0,-6z M119,107l6,0 0,6 -6,0 0,-6z M125,107l6,0 0,6 -6,0 0,-6z M131,107l6,0 0,6 -6,0 0,-6z M137,107l6,0 0,6 -6,0 0,-6z M143,107l6,0 0,6 -6,0 0,-6z M149,107l6,0 0,6 -6,0 0,-6z M161,107l6,0 0,6 -6,0 0,-6z M167,107l6,0 0,6 -6,0 0,-6z M179,107l6,0 0,6 -6,0 0,-6z M191,107l6,0 0,6 -6,0 0,-6z M41,113l6,0 0,6 -6,0 0,-6z M65,113l6,0 0,6 -6,0 0,-6z M71,113l6,0 0,6 -6,0 0,-6z M101,113l6,0 0,6 -6,0 0,-6z M149,113l6,0 0,6 -6,0 0,-6z M167,113l6,0 0,6 -6,0 0,-6z M179,113l6,0 0,6 -6,0 0,-6z M185,113l6,0 0,6 -6,0 0,-6z M203,113l6,0 0,6 -6,0 0,-6z M11,119l6,0 0,6 -6,0 0,-6z M17,119l6,0 0,6 -6,0 0,-6z M23,119l6,0 0,6 -6,0 0,-6z M29,119l6,0 0,6 -6,0 0,-6z M41,119l6,0 0,6 -6,0 0,-6z M47,119l6,0 0,6 -6,0 0,-6z M53,119l6,0 0,6 -6,0 0,-6z M71,119l6,0 0,6 -6,0 0,-6z M83,119l6,0 0,6 -6,0 0,-6z M101,119l6,0 0,6 -6,0 0,-6z M107,119l6,0 0,6 -6,0 0,-6z M131,119l6,0 0,6 -6,0 0,-6z M161,119l6,0 0,6 -6,0 0,-6z M167,119l6,0 0,6 -6,0 0,-6z M173,119l6,0 0,6 -6,0 0,-6z M179,119l6,0 0,6 -6,0 0,-6z M191,119l6,0 0,6 -6,0 0,-6z M197,119l6,0 0,6 -6,0 0,-6z M11,125l6,0 0,6 -6,0 0,-6z M17,125l6,0 0,6 -6,0 0,-6z M29,125l6,0 0,6 -6,0 0,-6z M77,125l6,0 0,6 -6,0 0,-6z M83,125l6,0 0,6 -6,0 0,-6z M89,125l6,0 0,6 -6,0 0,-6z M95,125l6,0 0,6 -6,0 0,-6z M101,125l6,0 0,6 -6,0 0,-6z M113,125l6,0 0,6 -6,0 0,-6z M155,125l6,0 0,6 -6,0 0,-6z M161,125l6,0 0,6 -6,0 0,-6z M167,125l6,0 0,6 -6,0 0,-6z M179,125l6,0 0,6 -6,0 0,-6z M197,125l6,0 0,6 -6,0 0,-6z M17,131l6,0 0,6 -6,0 0,-6z M23,131l6,0 0,6 -6,0 0,-6z M35,131l6,0 0,6 -6,0 0,-6z M41,131l6,0 0,6 -6,0 0,-6z M47,131l6,0 0,6 -6,0 0,-6z M53,131l6,0 0,6 -6,0 0,-6z M59,131l6,0 0,6 -6,0 0,-6z M65,131l6,0 0,6 -6,0 0,-6z M77,131l6,0 0,6 -6,0 0,-6z M101,131l6,0 0,6 -6,0 0,-6z M107,131l6,0 0,6 -6,0 0,-6z M125,131l6,0 0,6 -6,0 0,-6z M131,131l6,0 0,6 -6,0 0,-6z M137,131l6,0 0,6 -6,0 0,-6z M161,131l6,0 0,6 -6,0 0,-6z M173,131l6,0 0,6 -6,0 0,-6z M185,131l6,0 0,6 -6,0 0,-6z M191,131l6,0 0,6 -6,0 0,-6z M203,131l6,0 0,6 -6,0 0,-6z M11,137l6,0 0,6 -6,0 0,-6z M29,137l6,0 0,6 -6,0 0,-6z M41,137l6,0 0,6 -6,0 0,-6z M53,137l6,0 0,6 -6,0 0,-6z M59,137l6,0 0,6 -6,0 0,-6z M89,137l6,0 0,6 -6,0 0,-6z M95,137l6,0 0,6 -6,0 0,-6z M101,137l6,0 0,6 -6,0 0,-6z M107,137l6,0 0,6 -6,0 0,-6z M125,137l6,0 0,6 -6,0 0,-6z M137,137l6,0 0,6 -6,0 0,-6z M143,137l6,0 0,6 -6,0 0,-6z M161,137l6,0 0,6 -6,0 0,-6z M167,137l6,0 0,6 -6,0 0,-6z M173,137l6,0 0,6 -6,0 0,-6z M185,137l6,0 0,6 -6,0 0,-6z M191,137l6,0 0,6 -6,0 0,-6z M203,137l6,0 0,6 -6,0 0,-6z M29,143l6,0 0,6 -6,0 0,-6z M47,143l6,0 0,6 -6,0 0,-6z M59,143l6,0 0,6 -6,0 0,-6z M65,143l6,0 0,6 -6,0 0,-6z M71,143l6,0 0,6 -6,0 0,-6z M77,143l6,0 0,6 -6,0 0,-6z M83,143l6,0 0,6 -6,0 0,-6z M89,143l6,0 0,6 -6,0 0,-6z M95,143l6,0 0,6 -6,0 0,-6z M131,143l6,0 0,6 -6,0 0,-6z M143,143l6,0 0,6 -6,0 0,-6z M149,143l6,0 0,6 -6,0 0,-6z M161,143l6,0 0,6 -6,0 0,-6z M167,143l6,0 0,6 -6,0 0,-6z M185,143l6,0 0,6 -6,0 0,-6z M197,143l6,0 0,6 -6,0 0,-6z M203,143l6,0 0,6 -6,0 0,-6z M17,149l6,0 0,6 -6,0 0,-6z M23,149l6,0 0,6 -6,0 0,-6z M35,149l6,0 0,6 -6,0 0,-6z M65,149l6,0 0,6 -6,0 0,-6z M71,149l6,0 0,6 -6,0 0,-6z M83,149l6,0 0,6 -6,0 0,-6z M89,149l6,0 0,6 -6,0 0,-6z M101,149l6,0 0,6 -6,0 0,-6z M113,149l6,0 0,6 -6,0 0,-6z M119,149l6,0 0,6 -6,0 0,-6z M125,149l6,0 0,6 -6,0 0,-6z M131,149l6,0 0,6 -6,0 0,-6z M143,149l6,0 0,6 -6,0 0,-6z M149,149l6,0 0,6 -6,0 0,-6z M167,149l6,0 0,6 -6,0 0,-6z M185,149l6,0 0,6 -6,0 0,-6z M203,149l6,0 0,6 -6,0 0,-6z M11,155l6,0 0,6 -6,0 0,-6z M29,155l6,0 0,6 -6,0 0,-6z M41,155l6,0 0,6 -6,0 0,-6z M47,155l6,0 0,6 -6,0 0,-6z M77,155l6,0 0,6 -6,0 0,-6z M83,155l6,0 0,6 -6,0 0,-6z M107,155l6,0 0,6 -6,0 0,-6z M119,155l6,0 0,6 -6,0 0,-6z M143,155l6,0 0,6 -6,0 0,-6z M155,155l6,0 0,6 -6,0 0,-6z M161,155l6,0 0,6 -6,0 0,-6z M167,155l6,0 0,6 -6,0 0,-6z M173,155l6,0 0,6 -6,0 0,-6z M179,155l6,0 0,6 -6,0 0,-6z M203,155l6,0 0,6 -6,0 0,-6z M59,161l6,0 0,6 -6,0 0,-6z M65,161l6,0 0,6 -6,0 0,-6z M77,161l6,0 0,6 -6,0 0,-6z M89,161l6,0 0,6 -6,0 0,-6z M101,161l6,0 0,6 -6,0 0,-6z M113,161l6,0 0,6 -6,0 0,-6z M119,161l6,0 0,6 -6,0 0,-6z M125,161l6,0 0,6 -6,0 0,-6z M143,161l6,0 0,6 -6,0 0,-6z M155,161l6,0 0,6 -6,0 0,-6z M179,161l6,0 0,6 -6,0 0,-6z M185,161l6,0 0,6 -6,0 0,-6z M11,167l6,0 0,6 -6,0 0,-6z M17,167l6,0 0,6 -6,0 0,-6z M23,167l6,0 0,6 -6,0 0,-6z M29,167l6,0 0,6 -6,0 0,-6z M35,167l6,0 0,6 -6,0 0,-6z M41,167l6,0 0,6 -6,0 0,-6z M47,167l6,0 0,6 -6,0 0,-6z M65,167l6,0 0,6 -6,0 0,-6z M83,167l6,0 0,6 -6,0 0,-6z M95,167l6,0 0,6 -6,0 0,-6z M119,167l6,0 0,6 -6,0 0,-6z M125,167l6,0 0,6 -6,0 0,-6z M137,167l6,0 0,6 -6,0 0,-6z M149,167l6,0 0,6 -6,0 0,-6z M155,167l6,0 0,6 -6,0 0,-6z M167,167l6,0 0,6 -6,0 0,-6z M179,167l6,0 0,6 -6,0 0,-6z M197,167l6,0 0,6 -6,0 0,-6z M11,173l6,0 0,6 -6,0 0,-6z M47,173l6,0 0,6 -6,0 0,-6z M59,173l6,0 0,6 -6,0 0,-6z M83,173l6,0 0,6 -6,0 0,-6z M89,173l6,0 0,6 -6,0 0,-6z M95,173l6,0 0,6 -6,0 0,-6z M101,173l6,0 0,6 -6,0 0,-6z M107,173l6,0 0,6 -6,0 0,-6z M113,173l6,0 0,6 -6,0 0,-6z M119,173l6,0 0,6 -6,0 0,-6z M125,173l6,0 0,6 -6,0 0,-6z M137,173l6,0 0,6 -6,0 0,-6z M143,173l6,0 0,6 -6,0 0,-6z M149,173l6,0 0,6 -6,0 0,-6z M155,173l6,0 0,6 -6,0 0,-6z M179,173l6,0 0,6 -6,0 0,-6z M185,173l6,0 0,6 -6,0 0,-6z M191,173l6,0 0,6 -6,0 0,-6z M197,173l6,0 0,6 -6,0 0,-6z M11,179l6,0 0,6 -6,0 0,-6z M23,179l6,0 0,6 -6,0 0,-6z M29,179l6,0 0,6 -6,0 0,-6z M35,179l6,0 0,6 -6,0 0,-6z M47,179l6,0 0,6 -6,0 0,-6z M77,179l6,0 0,6 -6,0 0,-6z M119,179l6,0 0,6 -6,0 0,-6z M137,179l6,0 0,6 -6,0 0,-6z M143,179l6,0 0,6 -6,0 0,-6z M149,179l6,0 0,6 -6,0 0,-6z M155,179l6,0 0,6 -6,0 0,-6z M161,179l6,0 0,6 -6,0 0,-6z M167,179l6,0 0,6 -6,0 0,-6z M173,179l6,0 0,6 -6,0 0,-6z M179,179l6,0 0,6 -6,0 0,-6z M191,179l6,0 0,6 -6,0 0,-6z M197,179l6,0 0,6 -6,0 0,-6z M11,185l6,0 0,6 -6,0 0,-6z M23,185l6,0 0,6 -6,0 0,-6z M29,185l6,0 0,6 -6,0 0,-6z M35,185l6,0 0,6 -6,0 0,-6z M47,185l6,0 0,6 -6,0 0,-6z M59,185l6,0 0,6 -6,0 0,-6z M65,185l6,0 0,6 -6,0 0,-6z M83,185l6,0 0,6 -6,0 0,-6z M89,185l6,0 0,6 -6,0 0,-6z M107,185l6,0 0,6 -6,0 0,-6z M143,185l6,0 0,6 -6,0 0,-6z M149,185l6,0 0,6 -6,0 0,-6z M155,185l6,0 0,6 -6,0 0,-6z M173,185l6,0 0,6 -6,0 0,-6z M197,185l6,0 0,6 -6,0 0,-6z M203,185l6,0 0,6 -6,0 0,-6z M11,191l6,0 0,6 -6,0 0,-6z M23,191l6,0 0,6 -6,0 0,-6z M29,191l6,0 0,6 -6,0 0,-6z M35,191l6,0 0,6 -6,0 0,-6z M47,191l6,0 0,6 -6,0 0,-6z M59,191l6,0 0,6 -6,0 0,-6z M65,191l6,0 0,6 -6,0 0,-6z M83,191l6,0 0,6 -6,0 0,-6z M89,191l6,0 0,6 -6,0 0,-6z M95,191l6,0 0,6 -6,0 0,-6z M107,191l6,0 0,6 -6,0 0,-6z M131,191l6,0 0,6 -6,0 0,-6z M137,191l6,0 0,6 -6,0 0,-6z M143,191l6,0 0,6 -6,0 0,-6z M149,191l6,0 0,6 -6,0 0,-6z M155,191l6,0 0,6 -6,0 0,-6z M161,191l6,0 0,6 -6,0 0,-6z M167,191l6,0 0,6 -6,0 0,-6z M173,191l6,0 0,6 -6,0 0,-6z M185,191l6,0 0,6 -6,0 0,-6z M11,197l6,0 0,6 -6,0 0,-6z M47,197l6,0 0,6 -6,0 0,-6z M59,197l6,0 0,6 -6,0 0,-6z M65,197l6,0 0,6 -6,0 0,-6z M71,197l6,0 0,6 -6,0 0,-6z M77,197l6,0 0,6 -6,0 0,-6z M89,197l6,0 0,6 -6,0 0,-6z M101,197l6,0 0,6 -6,0 0,-6z M113,197l6,0 0,6 -6,0 0,-6z M125,197l6,0 0,6 -6,0 0,-6z M131,197l6,0 0,6 -6,0 0,-6z M143,197l6,0 0,6 -6,0 0,-6z M167,197l6,0 0,6 -6,0 0,-6z M173,197l6,0 0,6 -6,0 0,-6z M179,197l6,0 0,6 -6,0 0,-6z M203,197l6,0 0,6 -6,0 0,-6z M11,203l6,0 0,6 -6,0 0,-6z M17,203l6,0 0,6 -6,0 0,-6z M23,203l6,0 0,6 -6,0 0,-6z M29,203l6,0 0,6 -6,0 0,-6z M35,203l6,0 0,6 -6,0 0,-6z M41,203l6,0 0,6 -6,0 0,-6z M47,203l6,0 0,6 -6,0 0,-6z M71,203l6,0 0,6 -6,0 0,-6z M77,203l6,0 0,6 -6,0 0,-6z M83,203l6,0 0,6 -6,0 0,-6z M95,203l6,0 0,6 -6,0 0,-6z M107,203l6,0 0,6 -6,0 0,-6z M137,203l6,0 0,6 -6,0 0,-6z M149,203l6,0 0,6 -6,0 0,-6z M161,203l6,0 0,6 -6,0 0,-6z M167,203l6,0 0,6 -6,0 0,-6z M179,203l6,0 0,6 -6,0 0,-6z M191,203l6,0 0,6 -6,0 0,-6z " stroke="transparent" fill="#0c0c0d"/></svg>