<svg version="1.1" xmlns="http://www.w3.org/2000/svg" width="220px" height="220px" viewBox="0 0 220 220" preserveAspectRatio="xMinYMin meet" xmlns:xlink="http://www.w3.org/1999/xlink" xmlns:svgjs="http://svgjs.com/svgjs"><rect width="100%" height="100%" fill="#ffffff" cx="0" cy="0"/><path d="M11,11l6,0 0,6 -6,0 0,-6z M17,11l6,0 0,6 -6,0 0,-6z M23,11l6,0 0,6 -6,0 0,-6z M29,11l6,0 0,6 -6,0 0,-6z M35,11l6,0 0,6 -6,0 0,-6z M41,11l6,0 0,6 -6,0 0,-6z M47,11l6,0 0,6 -6,0 0,-6z M59,11l6,0 0,6 -6,0 0,-6z M71,11l6,0 0,6 -6,0 0,-6z M95,11l6,0 0,6 -6,0 0,-6z M107,11l6,0 0,6 -6,0 0,-6z M113,11l6,0 0,6 -6,0 0,-6z M119,11l6,0 0,6 -6,0 0,-6z M137,11l6,0 0,6 -6,0 0,-6z M143,11l6,0 0,6 -6,0 0,-6z M167,11l6,0 0,6 -6,0 0,-6z M173,11l6,0 0,6 -6,0 0,-6z M179,11l6,0 0,6 -6,0 0,-6z M185,11l6,0 0,6 -6,0 0,-6z M191,11l6,0 0,6 -6,0 0,-6z M197,11l6,0 0,6 -6,0 0,-6z M203,11l6,0 0,6 -6,0 0,-6z M11,17l6,0 0,6 -6,0 0,-6z M47,17l6,0 0,6 -6,0 0,-6z M59,17l6,0 0,6 -6,0 0,-6z M83,17l6,0 0,6 -6,0 0,-6z M95,17l6,0 0,6 -6,0 0,-6z M107,17l6,0 0,6 -6,0 0,-6z M119,17l6,0 0,6 -6,0 0,-6z M131,17l6,0 0,6 -6,0 0,-6z M137,17l6,0 0,6 -6,0 0,-6z M167,17l6,0 0,6 -6,0 0,-6z M203,17l6,0 0,6 -6,0 0,-6z M11,23l6,0 0,6 -6,0 0,-6z M23,23l6,0 0,6 -6,0 0,-6z M29,23l6,0 0,6 -6,0 0,-6z M35,23l6,0 0,6 -6,0 0,-6z M47,23l6,0 0,6 -6,0 0,-6z M71,23l6,0 0,6 -6,0 0,-6z M83,23l6,0 0,6 -6,0 0,-6z M89,23l6,0 0,6 -6,0 0,-6z M101,23l6,0 0,6 -6,0 0,-6z M107,23l6,0 0,6 -6,0 0,-6z M125,23l6,0 0,6 -6,0 0,-6z M137,23l6,0 0,6 -6,0 0,-6z M143,23l6,0 0,6 -6,0 0,-6z M155,23l6,0 0,6 -6,0 0,-6z M167,23l6,0 0,6 -6,0 0,-6z M179,23l6,0 0,6 -6,0 0,-6z M185,23l6,0 0,6 -6,0 0,-6z M191,23l6,0 0,6 -6,0 0,-6z M203,23l6,0 0,6 -6,0 0,-6z M11,29l6,0 0,6 -6,0 0,-6z M23,29l6,0 0,6 -6,0 0,-6z M29,29l6,0 0,6 -6,0 0,-6z M35,29l6,0 0,6 -6,0 0,-6z M47,29l6,0 0,6 -6,0 0,-6z M65,29l6,0 0,6 -6,0 0,-6z M83,29l6,0 0,6 -6,0 0,-6z M89,29l6,0 0,6 -6,0 0,-6z M95,29l6,0 0,6 -6,0 0,-6z M107,29l6,0 0,6 -6,0 0,-6z M119,29l6,0 0,6 -6,0 0,-6z M131,29l6,0 0,6 -6,0 0,-6z M149,29l6,0 0,6 -6,0 0,-6z M167,29l6,0 0,6 -6,0 0,-6z M179,29l6,0 0,6 -6,0 0,-6z M185,29l6,0 0,6 -6,0 0,-6z M191,29l6,0 0,6 -6,0 0,-6z M203,29l6,0 0,6 -6,0 0,-6z M11,35l6,0 0,6 -6,0 0,-6z M23,35l6,0 0,6 -6,0 0,-6z M29,35l6,0 0,6 -6,0 0,-6z M35,35l6,0 0,6 -6,0 0,-6z M47,35l6,0 0,6 -6,0 0,-6z M71,35l6,0 0,6 -6,0 0,-6z M83,35l6,0 0,6 -6,0 0,-6z M89,35l6,0 0,6 -6,0 0,-6z M95,35l6,0 0,6 -6,0 0,-6z M107,35l6,0 0,6 -6,0 0,-6z M113,35l6,0 0,6 -6,0 0,-6z M131,35l6,0 0,6 -6,0 0,-6z M167,35l6,0 0,6 -6,0 0,-6z M179,35l6,0 0,6 -6,0 0,-6z M185,35l6,0 0,6 -6,0 0,-6z M191,35l6,0 0,6 -6,0 0,-6z M203,35l6,0 0,6 -6,0 0,-6z M11,41l6,0 0,6 -6,0 0,-6z M47,41l6,0 0,6 -6,0 0,-6z M65,41l6,0 0,6 -6,0 0,-6z M101,41l6,0 0,6 -6,0 0,-6z M107,41l6,0 0,6 -6,0 0,-6z M113,41l6,0 0,6 -6,0 0,-6z M125,41l6,0 0,6 -6,0 0,-6z M137,41l6,0 0,6 -6,0 0,-6z M143,41l6,0 0,6 -6,0 0,-6z M167,41l6,0 0,6 -6,0 0,-6z M203,41l6,0 0,6 -6,0 0,-6z M11,47l6,0 0,6 -6,0 0,-6z M17,47l6,0 0,6 -6,0 0,-6z M23,47l6,0 0,6 -6,0 0,-6z M29,47l6,0 0,6 -6,0 0,-6z M35,47l6,0 0,6 -6,0 0,-6z M41,47l6,0 0,6 -6,0 0,-6z M47,47l6,0 0,6 -6,0 0,-6z M59,47l6,0 0,6 -6,0 0,-6z M71,47l6,0 0,6 -6,0 0,-6z M83,47l6,0 0,6 -6,0 0,-6z M95,47l6,0 0,6 -6,0 0,-6z M107,47l6,0 0,6 -6,0 0,-6z M119,47l6,0 0,6 -6,0 0,-6z M131,47l6,0 0,6 -6,0 0,-6z M143,47l6,0 0,6 -6,0 0,-6z M155,47l6,0 0,6 -6,0 0,-6z M167,47l6,0 0,6 -6,0 0,-6z M173,47l6,0 0,6 -6,0 0,-6z M179,47l6,0 0,6 -6,0 0,-6z M185,47l6,0 0,6 -6,0 0,-6z M191,47l6,0 0,6 -6,0 0,-6z M197,47l6,0 0,6 -6,0 0,-6z M203,47l6,0 0,6 -6,0 0,-6z M65,53l6,0 0,6 -6,0 0,-6z M71,53l6,0 0,6 -6,0 0,-6z M83,53l6,0 0,6 -6,0 0,-6z M89,53l6,0 0,6 -6,0 0,-6z M101,53l6,0 0,6 -6,0 0,-6z M107,53l6,0 0,6 -6,0 0,-6z M125,53l6,0 0,6 -6,0 0,-6z M131,53l6,0 0,6 -6,0 0,-6z M143,53l6,0 0,6 -6,0 0,-6z M17,59l6,0 0,6 -6,0 0,-6z M47,59l6,0 0,6 -6,0 0,-6z M53,59l6,0 0,6 -6,0 0,-6z M59,59l6,0 0,6 -6,0 0,-6z M65,59l6,0 0,6 -6,0 0,-6z M71,59l6,0 0,6 -6,0 0,-6z M89,59l6,0 0,6 -6,0 0,-6z M95,59l6,0 0,6 -6,0 0,-6z M113,59l6,0 0,6 -6,0 0,-6z M125,59l6,0 0,6 -6,0 0,-6z M143,59l6,0 0,6 -6,0 0,-6z M149,59l6,0 0,6 -6,0 0,-6z M161,59l6,0 0,6 -6,0 0,-6z M197,59l6,0 0,6 -6,0 0,-6z M203,59l6,0 0,6 -6,0 0,-6z M11,65l6,0 0,6 -6,0 0,-6z M17,65l6,0 0,6 -6,0 0,-6z M23,65l6,0 0,6 -6,0 0,-6z M29,65l6,0 0,6 -6,0 0,-6z M65,65l6,0 0,6 -6,0 0,-6z M71,65l6,0 0,6 -6,0 0,-6z M101,65l6,0 0,6 -6,0 0,-6z M107,65l6,0 0,6 -6,0 0,-6z M113,65l6,0 0,6 -6,0 0,-6z M119,65l6,0 0,6 -6,0 0,-6z M125,65l6,0 0,6 -6,0 0,-6z M137,65l6,0 0,6 -6,0 0,-6z M149,65l6,0 0,6 -6,0 0,-6z M179,65l6,0 0,6 -6,0 0,-6z M185,65l6,0 0,6 -6,0 0,-6z M191,65l6,0 0,6 -6,0 0,-6z M23,71l6,0 0,6 -6,0 0,-6z M29,71l6,0 0,6 -6,0 0,-6z M41,71l6,0 0,6 -6,0 0,-6z M47,71l6,0 0,6 -6,0 0,-6z M53,71l6,0 0,6 -6,0 0,-6z M83,71l6,0 0,6 -6,0 0,-6z M89,71l6,0 0,6 -6,0 0,-6z M95,71l6,0 0,6 -6,0 0,-6z M113,71l6,0 0,6 -6,0 0,-6z M155,71l6,0 0,6 -6,0 0,-6z M161,71l6,0 0,6 -6,0 0,-6z M179,71l6,0 0,6 -6,0 0,-6z M191,71l6,0 0,6 -6,0 0,-6z M197,71l6,0 0,6 -6,0 0,-6z M11,77l6,0 0,6 -6,0 0,-6z M17,77l6,0 0,6 -6,0 0,-6z M29,77l6,0 0,6 -6,0 0,-6z M53,77l6,0 0,6 -6,0 0,-6z M59,77l6,0 0,6 -6,0 0,-6z M65,77l6,0 0,6 -6,0 0,-6z M71,77l6,0 0,6 -6,0 0,-6z M77,77l6,0 0,6 -6,0 0,-6z M83,77l6,0 0,6 -6,0 0,-6z M89,77l6,0 0,6 -6,0 0,-6z M95,77l6,0 0,6 -6,0 0,-6z M101,77l6,0 0,6 -6,0 0,-6z M113,77l6,0 0,6 -6,0 0,-6z M119,77l6,0 0,6 -6,0 0,-6z M125,77l6,0 0,6 -6,0 0,-6z M131,77l6,0 0,6 -6,0 0,-6z M143,77l6,0 0,6 -6,0 0,-6z M149,77l6,0 0,6 -6,0 0,-6z M167,77l6,0 0,6 -6,0 0,-6z M173,77l6,0 0,6 -6,0 0,-6z M179,77l6,0 0,6 -6,0 0,-6z M185,77l6,0 0,6 -6,0 0,-6z M191,77l6,0 0,6 -6,0 0,-6z M197,77l6,0 0,6 -6,0 0,-6z M203,77l6,0 0,6 -6,0 0,-6z M11,83l6,0 0,6 -6,0 0,-6z M17,83l6,0 0,6 -6,0 0,-6z M29,83l6,0 0,6 -6,0 0,-6z M47,83l6,0 0,6 -6,0 0,-6z M53,83l6,0 0,6 -6,0 0,-6z M65,83l6,0 0,6 -6,0 0,-6z M83,83l6,0 0,6 -6,0 0,-6z M113,83l6,0 0,6 -6,0 0,-6z M131,83l6,0 0,6 -6,0 0,-6z M143,83l6,0 0,6 -6,0 0,-6z M155,83l6,0 0,6 -6,0 0,-6z M161,83l6,0 0,6 -6,0 0,-6z M167,83l6,0 0,6 -6,0 0,-6z M203,83l6,0 0,6 -6,0 0,-6z M11,89l6,0 0,6 -6,0 0,-6z M17,89l6,0 0,6 -6,0 0,-6z M29,89l6,0 0,6 -6,0 0,-6z M35,89l6,0 0,6 -6,0 0,-6z M41,89l6,0 0,6 -6,0 0,-6z M53,89l6,0 0,6 -6,0 0,-6z M59,89l6,0 0,6 -6,0 0,-6z M71,89l6,0 0,6 -6,0 0,-6z M83,89l6,0 0,6 -6,0 0,-6z M101,89l6,0 0,6 -6,0 0,-6z M119,89l6,0 0,6 -6,0 0,-6z M143,89l6,0 0,6 -6,0 0,-6z M161,89l6,0 0,6 -6,0 0,-6z M167,89l6,0 0,6 -6,0 0,-6z M173,89l6,0 0,6 -6,0 0,-6z M191,89l6,0 0,6 -6,0 0,-6z M197,89l6,0 0,6 -6,0 0,-6z M203,89l6,0 0,6 -6,0 0,-6z M11,95l6,0 0,6 -6,0 0,-6z M35,95l6,0 0,6 -6,0 0,-6z M41,95l6,0 0,6 -6,0 0,-6z M47,95l6,0 0,6 -6,0 0,-6z M53,95l6,0 0,6 -6,0 0,-6z M65,95l6,0 0,6 -6,0 0,-6z M71,95l6,0 0,6 -6,0 0,-6z M77,95l6,0 0,6 -6,0 0,-6z M83,95l6,0 0,6 -6,0 0,-6z M89,95l6,0 0,6 -6,0 0,-6z M101,95l6,0 0,6 -6,0 0,-6z M107,95l6,0 0,6 -6,0 0,-6z M131,95l6,0 0,6 -6,0 0,-6z M137,95l6,0 0,6 -6,0 0,-6z M143,95l6,0 0,6 -6,0 0,-6z M161,95l6,0 0,6 -6,0 0,-6z M167,95l6,0 0,6 -6,0 0,-6z M179,95l6,0 0,6 -6,0 0,-6z M185,95l6,0 0,6 -6,0 0,-6z M191,95l6,0 0,6 -6,0 0,-6z M197,95l6,0 0,6 -6,0 0,-6z M23,101l6,0 0,6 -6,0 0,-6z M53,101l6,0 0,6 -6,0 0,-6z M59,101l6,0 0,6 -6,0 0,-6z M65,101l6,0 0,6 -6,0 0,-6z M71,101l6,0 0,6 -6,0 0,-6z M95,101l6,0 0,6 -6,0 0,-6z M101,101l6,0 0,6 -6,0 0,-6z M119,101l6,0 0,6 -6,0 0,-6z M155,101l6,0 0,6 -6,0 0,-6z M161,101l6,0 0,6 -6,0 0,-6z M173,101l6,0 0,6 -6,0 0,-6z M185,101l6,0 0,6 -6,0 0,-6z M191,101l6,0 0,6 -6,0 0,-6z M203,101l6,0 0,6 -6,0 0,-6z M11,107l6,0 0,6 -6,0 0,-6z M17,107l6,0 0,6 -6,0 0,-6z M23,107l6,0 0,6 -6,0 0,-6z M29,107l6,0 0,6 -6,0 0,-6z M41,107l6,0 0,6 -6,0 0,-6z M47,107l6,0 0,6 -6,0 0,-6z M59,107l6,0 0,6 -6,0 0,-6z M83,107l6,0 0,6 -6,0 0,-6z M89,107l6,0 0,6 -6,0 0,-6z M101,107l6,0 0,6 -6,0 0,-6z M113,107l6,0 0,6 -6,0 0,-6z M143,107l6,0 0,6 -6,0 0,-6z M155,107l6,0 0,6 -6,0 0,-6z M161,107l6,0 0,6 -6,0 0,-6z M173,107l6,0 0,6 -6,0 0,-6z M179,107l6,0 0,6 -6,0 0,-6z M185,107l6,0 0,6 -6,0 0,-6z M203,107l6,0 0,6 -6,0 0,-6z M11,113l6,0 0,6 -6,0 0,-6z M17,113l6,0 0,6 -6,0 0,-6z M35,113l6,0 0,6 -6,0 0,-6z M41,113l6,0 0,6 -6,0 0,-6z M53,113l6,0 0,6 -6,0 0,-6z M83,113l6,0 0,6 -6,0 0,-6z M101,113l6,0 0,6 -6,0 0,-6z M107,113l6,0 0,6 -6,0 0,-6z M119,113l6,0 0,6 -6,0 0,-6z M125,113l6,0 0,6 -6,0 0,-6z M143,113l6,0 0,6 -6,0 0,-6z M149,113l6,0 0,6 -6,0 0,-6z M155,113l6,0 0,6 -6,0 0,-6z M161,113l6,0 0,6 -6,0 0,-6z M167,113l6,0 0,6 -6,0 0,-6z M185,113l6,0 0,6 -6,0 0,-6z M191,113l6,0 0,6 -6,0 0,-6z M197,113l6,0 0,6 -6,0 0,-6z M203,113l6,0 0,6 -6,0 0,-6z M11,119l6,0 0,6 -6,0 0,-6z M29,119l6,0 0,6 -6,0 0,-6z M41,119l6,0 0,6 -6,0 0,-6z M47,119l6,0 0,6 -6,0 0,-6z M59,119l6,0 0,6 -6,0 0,-6z M77,119l6,0 0,6 -6,0 0,-6z M83,119l6,0 0,6 -6,0 0,-6z M101,119l6,0 0,6 -6,0 0,-6z M119,119l6,0 0,6 -6,0 0,-6z M125,119l6,0 0,6 -6,0 0,-6z M149,119l6,0 0,6 -6,0 0,-6z M173,119l6,0 0,6 -6,0 0,-6z M185,119l6,0 0,6 -6,0 0,-6z M191,119l6,0 0,6 -6,0 0,-6z M203,119l6,0 0,6 -6,0 0,-6z M23,125l6,0 0,6 -6,0 0,-6z M29,125l6,0 0,6 -6,0 0,-6z M35,125l6,0 0,6 -6,0 0,-6z M41,125l6,0 0,6 -6,0 0,-6z M59,125l6,0 0,6 -6,0 0,-6z M95,125l6,0 0,6 -6,0 0,-6z M101,125l6,0 0,6 -6,0 0,-6z M113,125l6,0 0,6 -6,0 0,-6z M119,125l6,0 0,6 -6,0 0,-6z M131,125l6,0 0,6 -6,0 0,-6z M149,125l6,0 0,6 -6,0 0,-6z M161,125l6,0 0,6 -6,0 0,-6z M179,125l6,0 0,6 -6,0 0,-6z M185,125l6,0 0,6 -6,0 0,-6z M191,125l6,0 0,6 -6,0 0,-6z M197,125l6,0 0,6 -6,0 0,-6z M203,125l6,0 0,6 -6,0 0,-6z M11,131l6,0 0,6 -6,0 0,-6z M23,131l6,0 0,6 -6,0 0,-6z M47,131l6,0 0,6 -6,0 0,-6z M59,131l6,0 0,6 -6,0 0,-6z M65,131l6,0 0,6 -6,0 0,-6z M77,131l6,0 0,6 -6,0 0,-6z M89,131l6,0 0,6 -6,0 0,-6z M113,131l6,0 0,6 -6,0 0,-6z M119,131l6,0 0,6 -6,0 0,-6z M143,131l6,0 0,6 -6,0 0,-6z M161,131l6,0 0,6 -6,0 0,-6z M179,131l6,0 0,6 -6,0 0,-6z M185,131l6,0 0,6 -6,0 0,-6z M197,131l6,0 0,6 -6,0 0,-6z M203,131l6,0 0,6 -6,0 0,-6z M11,137l6,0 0,6 -6,0 0,-6z M23,137l6,0 0,6 -6,0 0,-6z M29,137l6,0 0,6 -6,0 0,-6z M35,137l6,0 0,6 -6,0 0,-6z M41,137l6,0 0,6 -6,0 0,-6z M59,137l6,0 0,6 -6,0 0,-6z M65,137l6,0 0,6 -6,0 0,-6z M71,137l6,0 0,6 -6,0 0,-6z M83,137l6,0 0,6 -6,0 0,-6z M89,137l6,0 0,6 -6,0 0,-6z M107,137l6,0 0,6 -6,0 0,-6z M143,137l6,0 0,6 -6,0 0,-6z M149,137l6,0 0,6 -6,0 0,-6z M155,137l6,0 0,6 -6,0 0,-6z M161,137l6,0 0,6 -6,0 0,-6z M167,137l6,0 0,6 -6,0 0,-6z M179,137l6,0 0,6 -6,0 0,-6z M185,137l6,0 0,6 -6,0 0,-6z M191,137l6,0 0,6 -6,0 0,-6z M11,143l6,0 0,6 -6,0 0,-6z M29,143l6,0 0,6 -6,0 0,-6z M41,143l6,0 0,6 -6,0 0,-6z M47,143l6,0 0,6 -6,0 0,-6z M53,143l6,0 0,6 -6,0 0,-6z M59,143l6,0 0,6 -6,0 0,-6z M71,143l6,0 0,6 -6,0 0,-6z M77,143l6,0 0,6 -6,0 0,-6z M89,143l6,0 0,6 -6,0 0,-6z M107,143l6,0 0,6 -6,0 0,-6z M113,143l6,0 0,6 -6,0 0,-6z M119,143l6,0 0,6 -6,0 0,-6z M131,143l6,0 0,6 -6,0 0,-6z M137,143l6,0 0,6 -6,0 0,-6z M143,143l6,0 0,6 -6,0 0,-6z M161,143l6,0 0,6 -6,0 0,-6z M173,143l6,0 0,6 -6,0 0,-6z M191,143l6,0 0,6 -6,0 0,-6z M197,143l6,0 0,6 -6,0 0,-6z M11,149l6,0 0,6 -6,0 0,-6z M23,149l6,0 0,6 -6,0 0,-6z M65,149l6,0 0,6 -6,0 0,-6z M83,149l6,0 0,6 -6,0 0,-6z M101,149l6,0 0,6 -6,0 0,-6z M107,149l6,0 0,6 -6,0 0,-6z M113,149l6,0 0,6 -6,0 0,-6z M161,149l6,0 0,6 -6,0 0,-6z M167,149l6,0 0,6 -6,0 0,-6z M179,149l6,0 0,6 -6,0 0,-6z M185,149l6,0 0,6 -6,0 0,-6z M191,149l6,0 0,6 -6,0 0,-6z M197,149l6,0 0,6 -6,0 0,-6z M203,149l6,0 0,6 -6,0 0,-6z M11,155l6,0 0,6 -6,0 0,-6z M17,155l6,0 0,6 -6,0 0,-6z M29,155l6,0 0,6 -6,0 0,-6z M35,155l6,0 0,6 -6,0 0,-6z M47,155l6,0 0,6 -6,0 0,-6z M59,155l6,0 0,6 -6,0 0,-6z M71,155l6,0 0,6 -6,0 0,-6z M83,155l6,0 0,6 -6,0 0,-6z M89,155l6,0 0,6 -6,0 0,-6z M95,155l6,0 0,6 -6,0 0,-6z M101,155l6,0 0,6 -6,0 0,-6z M113,155l6,0 0,6 -6,0 0,-6z M119,155l6,0 0,6 -6,0 0,-6z M125,155l6,0 0,6 -6,0 0,-6z M131,155l6,0 0,6 -6,0 0,-6z M149,155l6,0 0,6 -6,0 0,-6z M155,155l6,0 0,6 -6,0 0,-6z M161,155l6,0 0,6 -6,0 0,-6z M167,155l6,0 0,6 -6,0 0,-6z M173,155l6,0 0,6 -6,0 0,-6z M179,155l6,0 0,6 -6,0 0,-6z M185,155l6,0 0,6 -6,0 0,-6z M197,155l6,0 0,6 -6,0 0,-6z M59,161l6,0 0,6 -6,0 0,-6z M65,161l6,0 0,6 -6,0 0,-6z M83,161l6,0 0,6 -6,0 0,-6z M89,161l6,0 0,6 -6,0 0,-6z M95,161l6,0 0,6 -6,0 0,-6z M101,161l6,0 0,6 -6,0 0,-6z M125,161l6,0 0,6 -6,0 0,-6z M131,161l6,0 0,6 -6,0 0,-6z M137,161l6,0 0,6 -6,0 0,-6z M143,161l6,0 0,6 -6,0 0,-6z M149,161l6,0 0,6 -6,0 0,-6z M155,161l6,0 0,6 -6,0 0,-6z M179,161l6,0 0,6 -6,0 0,-6z M191,161l6,0 0,6 -6,0 0,-6z M203,161l6,0 0,6 -6,0 0,-6z M11,167l6,0 0,6 -6,0 0,-6z M17,167l6,0 0,6 -6,0 0,-6z M23,167l6,0 0,6 -6,0 0,-6z M29,167l6,0 0,6 -6,0 0,-6z M35,167l6,0 0,6 -6,0 0,-6z M41,167l6,0 0,6 -6,0 0,-6z M47,167l6,0 0,6 -6,0 0,-6z M59,167l6,0 0,6 -6,0 0,-6z M65,167l6,0 0,6 -6,0 0,-6z M89,167l6,0 0,6 -6,0 0,-6z M95,167l6,0 0,6 -6,0 0,-6z M101,167l6,0 0,6 -6,0 0,-6z M107,167l6,0 0,6 -6,0 0,-6z M143,167l6,0 0,6 -6,0 0,-6z M149,167l6,0 0,6 -6,0 0,-6z M155,167l6,0 0,6 -6,0 0,-6z M167,167l6,0 0,6 -6,0 0,-6z M179,167l6,0 0,6 -6,0 0,-6z M191,167l6,0 0,6 -6,0 0,-6z M11,173l6,0 0,6 -6,0 0,-6z M47,173l6,0 0,6 -6,0 0,-6z M71,173l6,0 0,6 -6,0 0,-6z M83,173l6,0 0,6 -6,0 0,-6z M89,173l6,0 0,6 -6,0 0,-6z M119,173l6,0 0,6 -6,0 0,-6z M125,173l6,0 0,6 -6,0 0,-6z M131,173l6,0 0,6 -6,0 0,-6z M143,173l6,0 0,6 -6,0 0,-6z M149,173l6,0 0,6 -6,0 0,-6z M155,173l6,0 0,6 -6,0 0,-6z M179,173l6,0 0,6 -6,0 0,-6z M185,173l6,0 0,6 -6,0 0,-6z M191,173l6,0 0,6 -6,0 0,-6z M197,173l6,0 0,6 -6,0 0,-6z M203,173l6,0 0,6 -6,0 0,-6z M11,179l6,0 0,6 -6,0 0,-6z M23,179l6,0 0,6 -6,0 0,-6z M29,179l6,0 0,6 -6,0 0,-6z M35,179l6,0 0,6 -6,0 0,-6z M47,179l6,0 0,6 -6,0 0,-6z M89,179l6,0 0,6 -6,0 0,-6z M95,179l6,0 0,6 -6,0 0,-6z M101,179l6,0 0,6 -6,0 0,-6z M113,179l6,0 0,6 -6,0 0,-6z M131,179l6,0 0,6 -6,0 0,-6z M137,179l6,0 0,6 -6,0 0,-6z M143,179l6,0 0,6 -6,0 0,-6z M155,179l6,0 0,6 -6,0 0,-6z M161,179l6,0 0,6 -6,0 0,-6z M167,179l6,0 0,6 -6,0 0,-6z M173,179l6,0 0,6 -6,0 0,-6z M179,179l6,0 0,6 -6,0 0,-6z M185,179l6,0 0,6 -6,0 0,-6z M197,179l6,0 0,6 -6,0 0,-6z M203,179l6,0 0,6 -6,0 0,-6z M11,185l6,0 0,6 -6,0 0,-6z M23,185l6,0 0,6 -6,0 0,-6z M29,185l6,0 0,6 -6,0 0,-6z M35,185l6,0 0,6 -6,0 0,-6z M47,185l6,0 0,6 -6,0 0,-6z M65,185l6,0 0,6 -6,0 0,-6z M83,185l6,0 0,6 -6,0 0,-6z M95,185l6,0 0,6 -6,0 0,-6z M101,185l6,0 0,6 -6,0 0,-6z M119,185l6,0 0,6 -6,0 0,-6z M131,185l6,0 0,6 -6,0 0,-6z M143,185l6,0 0,6 -6,0 0,-6z M149,185l6,0 0,6 -6,0 0,-6z M161,185l6,0 0,6 -6,0 0,-6z M173,185l6,0 0,6 -6,0 0,-6z M179,185l6,0 0,6 -6,0 0,-6z M191,185l6,0 0,6 -6,0 0,-6z M203,185l6,0 0,6 -6,0 0,-6z M11,191l6,0 0,6 -6,0 0,-6z M23,191l6,0 0,6 -6,0 0,-6z M29,191l6,0 0,6 -6,0 0,-6z M35,191l6,0 0,6 -6,0 0,-6z M47,191l6,0 0,6 -6,0 0,-6z M65,191l6,0 0,6 -6,0 0,-6z M71,191l6,0 0,6 -6,0 0,-6z M77,191l6,0 0,6 -6,0 0,-6z M83,191l6,0 0,6 -6,0 0,-6z M101,191l6,0 0,6 -6,0 0,-6z M113,191l6,0 0,6 -6,0 0,-6z M125,191l6,0 0,6 -6,0 0,-6z M137,191l6,0 0,6 -6,0 0,-6z M155,191l6,0 0,6 -6,0 0,-6z M173,191l6,0 0,6 -6,0 0,-6z M179,191l6,0 0,6 -6,0 0,-6z M197,191l6,0 0,6 -6,0 0,-6z M203,191l6,0 0,6 -6,0 0,-6z M11,197l6,0 0,6 -6,0 0,-6z M47,197l6,0 0,6 -6,0 0,-6z M59,197l6,0 0,6 -6,0 0,-6z M65,197l6,0 0,6 -6,0 0,-6z M71,197l6,0 0,6 -6,0 0,-6z M89,197l6,0 0,6 -6,0 0,-6z M95,197l6,0 0,6 -6,0 0,-6z M101,197l6,0 0,6 -6,0 0,-6z M119,197l6,0 0,6 -6,0 0,-6z M125,197l6,0 0,6 -6,0 0,-6z M143,197l6,0 0,6 -6,0 0,-6z M149,197l6,0 0,6 -6,0 0,-6z M161,197l6,0 0,6 -6,0 0,-6z M173,197l6,0 0,6 -6,0 0,-6z M179,197l6,0 0,6 -6,0 0,-6z M185,197l6,0 0,6 -6,0 0,-6z M191,197l6,0 0,6 -6,0 0,-6z M11,203l6,0 0,6 -6,0 0,-6z M17,203l6,0 0,6 -6,0 0,-6z M23,203l6,0 0,6 -6,0 0,-6z M29,203l6,0 0,6 -6,0 0,-6z M35,203l6,0 0,6 -6,0 0,-6z M41,203l6,0 0,6 -6,0 0,-6z M47,203l6,0 0,6 -6,0 0,-6z M65,203l6,0 0,6 -6,0 0,-6z M77,203l6,0 0,6 -6,0 0,-6z M89,203l6,0 0,6 -6,0 0,-6z M95,203l6,0 0,6 -6,0 0,-6z M119,203l6,0 0,6 -6,0 0,-6z M143,203l6,0 0,6 -6,0 0,-6z M155,203l6,0 0,6 -6,0 0,-6z M161,203l6,0 0,6 -6,0 0,-6z M173,203l6,0 0,6 -6,0 0,-6z M197,203l6,0 0,6 -6,0 0,-6z " stroke="transparent" fill="#0c0c0d"/></svg>